<svg xmlns="http://www.w3.org/2000/svg">

<symbol width="36" height="27" viewBox="0 0 36 27" fill="none" id="menu-icon">
<path fill-rule="evenodd" clip-rule="evenodd" d="M0.000262151 1.905C0.000262151 0.851511 0.957323 0 2.15365 0H33.9759C34.933 0 35.89 0.851511 35.89 1.905C35.89 2.95619 34.933 3.81 33.9759 3.81H2.15365C0.957323 3.81 0.000262151 2.95619 0.000262151 1.905ZM0 13.335C0 12.2838 0.95706 11.43 2.15339 11.43H33.9756C34.9327 11.43 35.8898 12.2838 35.8898 13.335C35.8898 14.3862 34.9327 15.24 33.9756 15.24H2.15339C0.95706 15.24 0 14.3862 0 13.335ZM2.15339 22.86C0.95706 22.86 0 23.7138 0 24.765C0 25.8185 0.95706 26.67 2.15339 26.67H33.9756C34.9327 26.67 35.8898 25.8185 35.8898 24.765C35.8898 23.7138 34.9327 22.86 33.9756 22.86H2.15339Z" fill="white"/>
</symbol>

<symbol width="48" height="48" viewBox="0 0 48 48" fill="none" id="exit-icon">
<g clip-path="url(#clip0_0_1135)">
<path d="M38 12.83L35.17 10L24 21.17L12.83 10L10 12.83L21.17 24L10 35.17L12.83 38L24 26.83L35.17 38L38 35.17L26.83 24L38 12.83Z" fill="white"/>
</g>
<defs>
<clipPath id="clip0_0_1135">
<rect width="48" height="48" fill="white"/>
</clipPath>
</defs>
</symbol>

<symbol width="30" height="30" viewBox="0 0 30 30" fill="none" id="avatar-icon">

<path d="M15.1699 2.8125C8.31563 2.71993 2.71993 8.31563 2.8125 15.1699C2.90391 21.7436 8.25645 27.0961 14.8301 27.1875C21.6856 27.2813 27.2801 21.6856 27.1863 14.8313C27.0961 8.25645 21.7436 2.90391 15.1699 2.8125ZM22.5773 21.9873C22.554 22.0125 22.5254 22.0323 22.4936 22.0453C22.4617 22.0582 22.4274 22.064 22.3931 22.0622C22.3587 22.0604 22.3252 22.0511 22.2949 22.0349C22.2646 22.0188 22.2382 21.9961 22.2176 21.9686C21.6935 21.2829 21.0517 20.6958 20.3221 20.2348C18.8303 19.2773 16.94 18.75 15 18.75C13.06 18.75 11.1697 19.2773 9.67793 20.2348C8.94837 20.6956 8.30654 21.2825 7.78243 21.968C7.76184 21.9955 7.73544 22.0182 7.70511 22.0344C7.67479 22.0505 7.64127 22.0599 7.60694 22.0617C7.5726 22.0634 7.5383 22.0577 7.50645 22.0447C7.47461 22.0318 7.446 22.012 7.42266 21.9867C5.70333 20.1307 4.72939 17.7055 4.6875 15.1758C4.592 9.47403 9.27071 4.70157 14.9748 4.6875C20.6789 4.67344 25.3125 9.30528 25.3125 15C25.3145 17.5907 24.3375 20.0864 22.5773 21.9873Z" fill="white"/>
<path d="M15 8.4375C13.8445 8.4375 12.7998 8.87051 12.0574 9.65742C11.3151 10.4443 10.9442 11.5324 11.0279 12.7002C11.1979 15 12.9797 16.875 15 16.875C17.0203 16.875 18.7986 15 18.9721 12.7008C19.0588 11.5441 18.6908 10.466 17.9361 9.66445C17.1908 8.87344 16.1479 8.4375 15 8.4375Z" fill="white"/>
</symbol>

<symbol width="20" height="20" viewBox="0 0 20 20" fill="none" id="restart-icon">

<path fill-rule="evenodd" clip-rule="evenodd" d="M9.37461 1.87501C10.4737 1.87369 11.5616 2.096 12.5721 2.5284C13.5826 2.96085 14.4947 3.59441 15.2527 4.39052L15.2636 4.40203L16.099 5.37384C16.324 5.63561 16.2942 6.03021 16.0324 6.25522C15.7706 6.48023 15.376 6.45043 15.151 6.18867L14.3366 5.24121C13.6977 4.57319 12.9302 4.0413 12.0803 3.6776C11.2256 3.31186 10.3054 3.12385 9.37578 3.12501L9.37539 3.12501H9.375C5.57955 3.12501 2.5 6.20456 2.5 10C2.5 13.7954 5.57953 16.875 9.37496 16.875M9.37461 1.87501C4.88899 1.87522 1.25 5.51433 1.25 10C1.25 14.4858 4.8892 18.125 9.375 18.125H9.37504C11.0554 18.1249 12.6945 17.604 14.0666 16.634C15.4388 15.664 16.4766 14.2926 17.0372 12.7085C17.1524 12.3831 16.982 12.026 16.6566 11.9108C16.3312 11.7957 15.974 11.9661 15.8589 12.2915C15.3844 13.632 14.5062 14.7925 13.3451 15.6133C12.1839 16.4341 10.797 16.8749 9.375 16.875" fill="white"/>
<path d="M18.125 3.80546V8.12499C18.125 8.29075 18.0592 8.44972 17.942 8.56693C17.8247 8.68414 17.6658 8.74999 17.5 8.74999H13.1805C12.6234 8.74999 12.3445 8.07694 12.7383 7.68319L17.0582 3.36327C17.452 2.96874 18.125 3.24843 18.125 3.80546Z" fill="white"/>
</symbol>

  <symbol width="24" height="24" viewBox="0 0 24 24" fill="none" id="success-icon">
<path fill-rule="evenodd" clip-rule="evenodd" d="M9.91007 17.4958L3.70711 11.2929C3.31658 10.9024 2.68342 10.9024 2.29289 11.2929C1.90237 11.6834 1.90237 12.3166 2.29289 12.7071L9.29289 19.7071C9.71682 20.131 10.4159 20.0892 10.7863 19.6178L21.7863 5.6178C22.1275 5.18353 22.0521 4.55488 21.6178 4.21366C21.1835 3.87245 20.5549 3.94789 20.2137 4.38216L9.91007 17.4958Z" fill="white"/>
<path fill-rule="evenodd" clip-rule="evenodd" d="M9.91007 17.4958L3.70711 11.2929C3.31658 10.9024 2.68342 10.9024 2.29289 11.2929C1.90237 11.6834 1.90237 12.3166 2.29289 12.7071L9.29289 19.7071C9.71682 20.131 10.4159 20.0892 10.7863 19.6178L21.7863 5.6178C22.1275 5.18353 22.0521 4.55488 21.6178 4.21366C21.1835 3.87245 20.5549 3.94789 20.2137 4.38216L9.91007 17.4958Z" fill="white"/>
  </symbol>

  <symbol width="23" height="20" viewBox="0 0 23 20" fill="none" id="error-icon">
    <path d="M0 19.7917H22.9167L11.4583 0L0 19.7917ZM12.5 16.6667H10.4167V14.5833H12.5V16.6667ZM12.5 12.5H10.4167V8.33333H12.5V12.5Z" fill="white"/>
  </symbol>

  <symbol width="25" height="25" viewBox="0 0 25 25" fill="none" id="alarm-icon">
<path d="M12.5 2.08331C6.75 2.08331 2.08333 6.74998 2.08333 12.5C2.08333 18.25 6.75 22.9166 12.5 22.9166C18.25 22.9166 22.9167 18.25 22.9167 12.5C22.9167 6.74998 18.25 2.08331 12.5 2.08331ZM13.5417 17.7083H11.4583V15.625H13.5417V17.7083ZM13.5417 13.5416H11.4583V7.29165H13.5417V13.5416Z" fill="white"/>
  </symbol>

  <symbol width="18" height="18" viewBox="0 0 18 18" fill="none" id="hint-icon">
<path d="M6.75 15.75C6.75 16.1625 7.0875 16.5 7.5 16.5H10.5C10.9125 16.5 11.25 16.1625 11.25 15.75V15H6.75V15.75ZM9 1.5C6.10125 1.5 3.75 3.85125 3.75 6.75C3.75 8.535 4.6425 10.1062 6 11.055V12.75C6 13.1625 6.3375 13.5 6.75 13.5H11.25C11.6625 13.5 12 13.1625 12 12.75V11.055C13.3575 10.1062 14.25 8.535 14.25 6.75C14.25 3.85125 11.8988 1.5 9 1.5ZM11.1412 9.825L10.5 10.2712V12H7.5V10.275L6.85875 9.82875C5.85 9.12375 5.25 7.97625 5.25 6.75375C5.25 4.6875 6.93375 3.00375 9 3.00375C11.0662 3.00375 12.75 4.6875 12.75 6.75375C12.75 7.9725 12.15 9.12 11.1412 9.825Z" fill="white"/>
  </symbol>
</svg>





 





